<svg width="62" height="62" viewBox="0 0 62 62" fill="none" xmlns="http://www.w3.org/2000/svg">
<path d="M50.9842 24.7936L39.3895 22.1013L42.8173 7.33901C43.271 5.38468 45.2233 4.16817 47.1776 4.62203L51.6949 5.67082C53.6493 6.12456 54.8658 8.07683 54.4119 10.0312L50.9842 24.7936Z" fill="#01ACFD"/>
<path d="M11.0158 24.7936L22.6105 22.1013L19.1828 7.33889C18.7291 5.38455 16.7768 4.16805 14.8225 4.62191L10.3051 5.67082C8.35074 6.12456 7.13423 8.07683 7.58809 10.0312L11.0158 24.7936Z" fill="#01ACFD"/>
<path d="M35.6973 3.7579H26.3026L27.2421 0.000120163H34.7579L35.6973 3.7579Z" fill="#01ACFD"/>
<path d="M27.2425 11.2727H23.4849V3.6471C23.4848 1.63283 25.1176 0 27.1319 0H27.2425V11.2727Z" fill="#01ACFD"/>
<path d="M38.5152 11.2727H34.7577V0H34.8682C36.8825 0 38.5153 1.63283 38.5153 3.6471V11.2727H38.5152Z" fill="#01ACFD"/>
<path d="M52.6065 24.3652V46.9697H9.39348V24.3652C9.39348 22.9416 9.59183 21.5643 9.96359 20.2604L15.155 17.5755L19.8224 10.0959C20.9877 9.72419 22.2142 9.49205 23.4843 9.41976H23.4855L25.5603 10.1858L27.2421 9.3936H37.6348C45.903 9.39348 52.6065 16.0971 52.6065 24.3652Z" fill="#FEA301"/>
<path d="M29.9695 9.39348C27.5566 10.6062 21.7389 14.3727 21.7389 22.5024V46.9697H9.39348V24.3651C9.39348 16.0971 16.097 9.39348 24.3651 9.39348H29.9695Z" fill="#FEA301"/>
<path d="M54.4854 45.0758V54.5141C54.4854 58.6487 51.133 61.9999 46.9996 61.9999H15.0004C10.8669 61.9999 7.51459 58.6487 7.51459 54.5141V45.0758C7.51459 43.9417 8.01991 42.925 8.81707 42.2399C9.47207 41.6748 10.3254 41.3329 11.2575 41.3329H50.7426C52.8086 41.3329 54.4854 43.0085 54.4854 45.0758Z" fill="#FEA301"/>
<path d="M21.8424 62H15.0004C10.8661 62 7.51459 58.6485 7.51459 54.5142V45.0759C7.51459 43.9418 8.01991 42.9251 8.81707 42.24L18.1993 46.9698V56.5105C18.1993 58.8884 19.5034 61.0101 21.8424 62Z" fill="#FEA301"/>
<path d="M45.1795 56.3637C42.7937 56.3637 41.043 54.1215 41.6216 51.8069L43.3006 45.091H47.0581L48.7371 51.8069C49.3159 54.1215 47.5653 56.3637 45.1795 56.3637Z" fill="#495560"/>
<path d="M57.3026 45.0983C57.3026 45.6149 57.093 46.0827 56.7549 46.4208C56.4168 46.7601 55.9477 46.9697 55.4313 46.9697H18.1993L14.6785 46.3721V39.4915L21.7389 37.5764H49.7807C53.9353 37.5764 57.3026 40.9437 57.3026 45.0983Z" fill="#01ACFD"/>
<path d="M16.8543 44.7589C16.8543 45.7458 17.3684 46.4606 18.1993 46.9697H6.56885C5.53458 46.9697 4.69734 46.1313 4.69734 45.0982C4.69734 43.021 5.53955 41.1408 6.90064 39.7795C8.26186 38.4183 10.142 37.5762 12.2193 37.5762H21.7387C21.7389 37.5764 16.8543 39.5762 16.8543 44.7589Z" fill="#01ACFD"/>
<path d="M34.82 20.6667H27.1801C26.177 20.6667 25.3637 19.8534 25.3637 18.8503V16.8467C25.3637 15.8435 26.177 15.0303 27.1801 15.0303H34.82C35.8232 15.0303 36.6364 15.8435 36.6364 16.8467V18.8503C36.6364 19.8534 35.8232 20.6667 34.82 20.6667Z" fill="#68A2DF"/>
<path d="M20.9182 33.2089C22.9727 33.2089 24.6382 31.8825 24.6382 30.2464C24.6382 28.6103 22.9727 27.284 20.9182 27.284C18.8637 27.284 17.1982 28.6103 17.1982 30.2464C17.1982 31.8825 18.8637 33.2089 20.9182 33.2089Z" fill="white"/>
<path d="M41.0818 33.2089C43.1363 33.2089 44.8018 31.8825 44.8018 30.2464C44.8018 28.6103 43.1363 27.284 41.0818 27.284C39.0273 27.284 37.3618 28.6103 37.3618 30.2464C37.3618 31.8825 39.0273 33.2089 41.0818 33.2089Z" fill="white"/>
<path d="M34.607 26.6801C34.0902 26.6801 33.6713 27.0991 33.6713 27.6158C33.6713 28.0942 33.282 28.4836 32.8036 28.4836C32.325 28.4836 31.9358 28.0942 31.9358 27.6158C31.9358 27.099 31.5168 26.6801 31.0001 26.6801C30.4834 26.6801 30.0644 27.0991 30.0644 27.6158C30.0644 28.0942 29.6751 28.4836 29.1967 28.4836C28.7182 28.4836 28.3289 28.0942 28.3289 27.6158C28.3289 27.099 27.9099 26.6801 27.3932 26.6801C26.8765 26.6801 26.4575 27.0991 26.4575 27.6158C26.4575 29.1262 27.6864 30.3549 29.1968 30.3549C29.8871 30.3549 30.518 30.0977 31.0003 29.6749C31.4825 30.0977 32.1136 30.3549 32.8039 30.3549C34.3143 30.3549 35.5432 29.1261 35.5432 27.6158C35.5428 27.099 35.1238 26.6801 34.607 26.6801Z" fill="#495560"/>
<path d="M25.0416 27.0774C24.5247 27.0774 24.1059 26.6584 24.1059 26.1417C24.1059 25.7107 23.7552 25.3601 23.3242 25.3601C22.8932 25.3601 22.5426 25.7107 22.5426 26.1417C22.5426 26.6585 22.1236 27.0774 21.6069 27.0774C21.0902 27.0774 20.6712 26.6584 20.6712 26.1417C20.6712 24.6788 21.8614 23.4886 23.3243 23.4886C24.7873 23.4886 25.9775 24.6788 25.9775 26.1417C25.9774 26.6584 25.5584 27.0774 25.0416 27.0774Z" fill="#495560"/>
<path d="M40.3931 27.0774C39.8763 27.0774 39.4574 26.6584 39.4574 26.1417C39.4574 25.7107 39.1067 25.3601 38.6758 25.3601C38.2448 25.3601 37.8941 25.7107 37.8941 26.1417C37.8941 26.6585 37.4751 27.0774 36.9584 27.0774C36.4416 27.0774 36.0227 26.6584 36.0227 26.1417C36.0227 24.6788 37.213 23.4886 38.6759 23.4886C40.1388 23.4886 41.329 24.6788 41.329 26.1417C41.3288 26.6584 40.9099 27.0774 40.3931 27.0774Z" fill="#495560"/>
</svg>
