<svg width="138" height="138" viewBox="0 0 138 138" fill="none" xmlns="http://www.w3.org/2000/svg">
<path opacity="0.4" fill-rule="evenodd" clip-rule="evenodd" d="M123.081 119.576C123.081 119.576 108.857 132.158 95.4546 134.073C95.4546 134.073 75.2137 140.364 62.6315 132.022C62.6315 132.022 45.8097 126.825 50.1861 104.806C50.1861 104.806 45.9464 88.8044 37.3304 91.95C37.3304 91.95 19.2776 89.7618 14.7645 85.9324C14.7645 85.9324 4.91753 76.7693 2.59256 49.9637C2.59256 49.9637 3.96019 31.6375 11.8924 19.7391C11.8924 19.7391 20.9188 6.33635 34.8686 2.23346C34.8686 2.23346 65.0932 -6.65613 68.5123 26.3037C68.5123 26.3037 65.5035 47.502 72.4784 59.6739C72.4784 59.6739 86.018 68.9738 101.199 86.2059C101.199 86.2059 159.87 74.5811 123.081 119.576Z" fill="#64C8FF"/>
<path d="M84.3769 59.2637C80.5475 70.2047 87.1122 82.3766 98.8738 86.4795C110.635 90.5824 123.354 85.1119 127.184 74.1708C131.013 63.2298 124.448 51.0579 112.687 46.955C100.788 42.8521 88.2063 48.3226 84.3769 59.2637Z" fill="#B9D12E"/>
<path opacity="0.1" d="M123.901 55.0239C120.893 52.5622 118.021 55.1607 118.157 57.6224C118.294 59.6738 122.534 63.0929 120.072 69.9311C118.021 75.9486 113.918 80.325 104.071 80.7353C97.0958 81.0089 89.7106 77.3163 85.4709 69.1105C83.2827 64.8708 83.5563 62.8194 83.693 61.7253C81.3681 71.9825 87.7959 82.9235 98.8737 86.7529C110.635 90.8558 123.354 85.3853 127.184 74.4442C128.004 71.9825 128.415 69.5208 128.278 67.059C128.141 64.4605 126.637 58.0327 123.901 55.0239Z" fill="#3E6B12"/>
<path opacity="0.3" d="M109.404 56.2548C106.259 55.9813 101.472 54.2034 104.344 50.5108C106.943 46.9549 116.379 48.1858 118.157 52.2887C119.388 55.0239 114.054 56.6651 109.404 56.2548Z" fill="#3E6B12"/>
<path d="M85.6077 56.2549C90.3944 47.502 101.609 43.2624 112.277 46.8182C109.678 47.3653 98.8737 47.0917 101.199 53.7931C103.25 59.5372 111.319 58.9901 113.234 60.9048C115.149 62.8195 115.422 65.6915 114.875 67.1959C113.507 71.162 107.763 75.5384 99.5576 73.7605C92.0356 72.1194 84.9239 63.5033 85.6077 56.2549Z" fill="#E0E560"/>
<path opacity="0.7" d="M110.225 52.5623C109.268 52.4256 107.763 51.8785 108.584 50.7844C109.404 49.8271 112.413 50.2374 112.96 51.4682C113.371 52.4256 111.729 52.8359 110.225 52.5623Z" fill="#3E6B12"/>
<g opacity="0.5">
<path d="M97.0958 55.0241C97.2326 56.6652 96.1385 58.0329 94.6341 58.1696C93.1297 58.3064 91.8988 57.0755 91.7621 55.4344C91.6253 53.7932 92.7194 52.4256 94.2238 52.2888C95.7282 52.1521 96.9591 53.3829 97.0958 55.0241Z" fill="white"/>
</g>
<g opacity="0.5">
<path d="M97.3702 59.6744C97.3702 60.3585 96.9598 61.0425 96.2757 61.0425C95.5917 61.0425 95.0444 60.4953 94.9076 59.8112C94.9076 59.1272 95.3181 58.4431 96.0021 58.4431C96.6862 58.3063 97.2334 58.8536 97.3702 59.6744Z" fill="white"/>
</g>
<path d="M103.797 53.7932C103.797 53.7932 104.071 53.93 104.481 54.0667C104.891 54.2035 105.438 54.477 106.259 54.7506C106.669 54.8873 106.943 55.0241 107.49 55.1608C107.763 55.1608 107.9 55.2976 108.174 55.2976C108.447 55.2976 108.584 55.4344 108.857 55.4344C109.131 55.4344 109.268 55.5711 109.541 55.5711C109.815 55.5711 109.952 55.5711 110.225 55.7079C110.772 55.7079 111.182 55.7079 111.729 55.7079C112.276 55.7079 112.687 55.5711 113.097 55.5711C113.371 55.5711 113.507 55.4344 113.781 55.4344H113.918H114.054C114.191 55.4344 114.328 55.4344 114.328 55.2976C114.465 55.2976 114.601 55.1608 114.601 55.1608C114.738 55.1608 114.738 55.0241 114.875 55.0241C115.012 55.0241 115.012 54.8873 115.149 54.8873C115.285 54.8873 115.285 54.7506 115.422 54.7506C115.559 54.6138 115.832 54.6138 115.969 54.477C116.106 54.477 116.106 54.3403 116.243 54.3403C116.379 54.3403 116.379 54.2035 116.516 54.2035C116.79 53.93 117.063 53.7932 117.2 53.5197C117.337 53.3829 117.337 53.2462 117.473 53.2462C117.61 53.1094 117.61 53.1094 117.747 52.9726C117.884 52.8359 118.021 52.6991 118.021 52.5623C118.157 52.4256 118.157 52.2888 118.157 52.2888V52.4256C118.157 52.5623 118.157 52.6991 118.157 52.9726C118.157 53.2462 118.021 53.5197 117.884 53.7932C117.747 54.0667 117.473 54.477 117.2 54.7506C117.063 54.8873 116.926 55.0241 116.79 55.2976L116.653 55.4344L116.516 55.5711C116.379 55.7079 116.379 55.7079 116.243 55.8447C116.106 55.9814 115.969 55.9814 115.969 55.9814C115.832 55.9814 115.696 56.1182 115.696 56.1182C115.422 56.2549 115.285 56.3917 115.012 56.3917C114.875 56.3917 114.738 56.5285 114.601 56.5285H114.465H114.328C114.054 56.6652 113.781 56.6652 113.507 56.6652C113.234 56.6652 112.96 56.802 112.687 56.802C112.413 56.802 112.14 56.802 111.866 56.802C111.593 56.802 111.319 56.802 111.046 56.802C110.772 56.802 110.499 56.802 110.225 56.6652C109.952 56.6652 109.678 56.5285 109.404 56.5285C109.131 56.5285 108.857 56.3917 108.584 56.2549C108.31 56.1182 108.037 56.1182 107.9 55.9814C107.627 55.8447 107.49 55.8447 107.216 55.7079C106.806 55.5711 106.396 55.2976 106.122 55.0241C105.438 54.6138 104.891 54.2035 104.618 53.7932C104.071 54.0667 103.797 53.7932 103.797 53.7932Z" fill="#E0E560"/>
<path d="M109.952 52.2888C109.952 52.2888 112.14 47.9123 114.738 46.1344C118.021 43.8095 120.346 45.7241 120.346 45.7241L119.662 41.758C119.662 41.758 116.79 41.3477 114.328 42.7154C110.362 45.0403 109.268 52.0152 109.268 52.0152L109.952 52.2888Z" fill="#7C201E"/>
<path d="M110.088 52.152C110.088 52.152 112.277 47.7756 114.875 45.9977C118.157 43.6727 120.482 45.5874 120.482 45.5874L119.935 43.6727C119.935 43.6727 117.063 43.2624 114.601 44.63C110.635 46.955 109.404 51.8785 109.404 51.8785L110.088 52.152Z" fill="#600606"/>
<path d="M43.895 43.6727L38.8348 38.6125L33.9113 43.536L42.6641 50.7844L43.895 43.6727Z" fill="#A33C00"/>
<path d="M39.6554 48.4595C39.6554 48.4595 49.9126 65.4181 41.023 80.5988C30.9025 97.6941 5.46462 102.207 4.50728 103.712C3.54994 105.216 2.86613 108.225 4.23376 108.772C5.60139 109.319 13.3969 114.79 28.9879 111.097C44.8524 107.404 74.9402 83.0605 58.2551 52.8359C53.0581 43.3992 42.3906 42.989 42.3906 42.989L39.6554 48.4595Z" fill="#FCC107"/>
<path d="M3.82346 106.721C3.54993 107.951 3.82346 108.362 4.64404 108.635C6.01167 109.182 13.8072 114.516 29.3981 110.823C45.2626 107.131 75.3505 82.6502 58.6654 52.6991C53.4684 43.2625 42.8009 42.989 42.8009 42.989L41.7068 45.0404C41.7068 45.0404 66.0506 61.1784 50.3229 87.8472C36.5098 111.234 3.96022 105.9 3.82346 106.721Z" fill="#F2A718"/>
<path d="M41.2965 87.0265C38.8348 85.3853 36.6466 91.5396 30.3555 95.6425C24.0644 99.7454 19.8247 101.387 19.8247 101.387C19.8247 101.387 26.3894 100.429 31.4496 98.3778C39.5186 95.2322 44.7156 89.3514 41.2965 87.0265Z" fill="#FFDD01"/>
<path d="M73.1623 109.866C68.9226 109.866 64.8197 109.319 61.811 108.225C58.6654 107.131 56.8875 105.49 56.8875 103.712C56.8875 103.301 56.614 67.1959 56.8875 52.4255C57.161 40.2536 58.5287 38.0654 60.4433 35.0566C60.8536 34.3728 61.4007 33.5523 61.811 32.5949C64.2727 27.8082 64.4095 18.7819 64.4095 18.6451V18.2348H82.3254V18.6451C82.3254 18.7819 82.0519 27.8082 84.5136 32.5949C85.0607 33.5523 85.471 34.2361 85.8813 35.0566C87.7959 38.0654 89.1636 40.2536 89.4371 52.4255C89.7106 65.0077 89.5738 97.147 89.5738 103.438C89.5738 103.575 89.5738 103.712 89.5738 103.712C89.5738 105.49 87.7959 106.994 84.6504 108.225C81.3681 109.182 77.4019 109.866 73.1623 109.866ZM65.23 19.0554C65.23 20.9701 64.8197 28.492 62.4948 33.0052C61.9477 33.9625 61.5374 34.7831 60.9904 35.4669C59.2125 38.339 57.8448 40.5272 57.5713 52.4255C57.2978 67.1959 57.5713 103.301 57.5713 103.712C57.5713 106.31 63.7256 109.045 73.0255 109.045C82.3254 109.045 88.4797 106.31 88.4797 103.712C88.4797 103.712 88.4797 103.575 88.4797 103.438C88.4797 97.147 88.6165 65.0077 88.343 52.4255C88.0695 40.5272 86.8386 38.339 84.9239 35.4669C84.5136 34.7831 83.9666 33.9625 83.4195 33.0052C81.2313 28.492 81.2313 20.9701 81.2313 19.0554H65.23Z" fill="#9D9EE2"/>
<path d="M87.6592 51.8785C87.3857 38.0654 85.3342 38.339 83.0092 33.689C80.6843 29.0391 80.1372 20.6965 80.1372 20.6965H65.9139C65.9139 20.6965 65.6403 29.1758 63.1786 33.689C60.8536 38.339 58.8022 38.0654 58.5287 51.8785C58.2551 65.6916 58.5287 102.618 58.5287 102.618C58.5287 105.49 65.0933 107.951 73.1623 107.951C81.2313 107.951 87.7959 105.626 87.7959 102.618C87.7959 102.481 87.9327 64.7342 87.6592 51.8785Z" fill="#B6BFF2"/>
<g opacity="0.5">
<path d="M65.6403 35.1934C64.4095 35.1934 62.9051 35.3302 62.2213 42.1683C61.5374 49.0065 62.7683 55.7079 62.7683 55.7079C62.7683 55.7079 62.2213 52.2888 63.3154 46.8183C64.2727 41.8948 67.555 39.0228 67.555 37.5184C67.555 36.1508 66.4609 35.1934 65.6403 35.1934Z" fill="white"/>
</g>
<path opacity="0.9" d="M86.018 48.5961H60.0331C59.8963 50.2373 59.7595 52.152 59.7595 54.6137C59.486 68.1532 59.7595 100.976 59.7595 100.976C59.7595 103.848 65.6403 106.173 73.0255 106.173C80.4107 106.173 86.2916 103.848 86.2916 100.976C86.2916 100.84 86.4283 67.1959 86.2916 54.6137C86.2916 52.2887 86.1548 50.2373 86.018 48.5961Z" fill="#F9FCFF"/>
<path d="M86.018 48.5962C86.018 51.3315 80.1372 53.5197 73.0255 53.5197C65.9139 53.5197 60.0331 51.3315 60.0331 48.5962C60.0331 45.8609 65.9139 43.6727 73.0255 43.6727C80.1372 43.6727 86.018 45.9977 86.018 48.5962Z" fill="white"/>
<path opacity="0.3" d="M88.8901 52.5623C88.6165 38.7493 86.5651 39.0228 84.2401 34.3729C81.9151 29.7229 81.3681 21.3804 81.3681 21.3804H72.3417C72.752 23.9789 73.4358 26.8509 74.5299 29.0391C76.8549 33.689 78.9064 33.4155 79.1799 47.2286C79.4534 60.0843 80.821 93.5912 79.3166 97.9676C77.6755 102.481 71.6579 105.216 66.7345 104.532C60.0331 103.712 59.0757 101.387 58.5287 101.25C58.5287 101.523 58.3919 103.985 58.3919 103.985C58.3919 106.857 66.3242 108.635 74.3932 108.635C82.4622 108.635 89.0268 106.31 89.0268 103.301C89.0268 103.028 89.1636 65.2813 88.8901 52.5623Z" fill="#C0C3E2"/>
<path d="M73.0256 19.1922C63.5889 19.3289 61.9478 16.4569 61.9478 16.4569V20.5598C61.9478 22.6112 66.8712 24.2524 73.0256 24.2524C79.1799 24.2524 84.1034 22.6112 84.1034 20.5598V16.4569C84.1034 16.4569 82.4622 19.0554 73.0256 19.1922Z" fill="#37C6B7"/>
<path d="M84.1034 16.4569C84.1034 18.5083 79.1799 20.1495 73.0256 20.1495C66.8712 20.1495 61.9478 18.5083 61.9478 16.4569C61.9478 14.4054 66.8712 12.7643 73.0256 12.7643C79.1799 12.7643 84.1034 14.4054 84.1034 16.4569Z" fill="#55CFC4"/>
<path d="M83.0092 16.3201C83.0092 18.098 78.6328 19.6024 73.1623 19.6024C67.6918 19.6024 63.3154 18.098 63.3154 16.3201C63.3154 14.5422 67.6918 13.0378 73.1623 13.0378C78.4961 13.0378 83.0092 14.5422 83.0092 16.3201Z" fill="#7FDBD0"/>
<path d="M54.4258 102.07C55.5199 104.669 63.3154 105.763 72.752 109.592C82.5989 113.559 86.1548 118.482 94.6341 118.482C101.199 118.482 127.184 99.3352 130.74 96.7367C132.244 95.6426 132.928 89.078 132.107 88.1206C130.466 86.0692 121.166 84.428 114.191 82.2398C105.985 79.7781 101.883 78.684 96.0017 79.5046C91.3518 80.1884 63.5889 88.5309 54.289 94.9588C52.9214 96.0529 53.4684 99.8823 54.4258 102.07Z" fill="#E58619"/>
<path d="M94.6341 111.37C94.2238 114.106 91.8988 116.841 89.5739 118.072C92.0356 117.935 94.2238 118.892 96.5488 118.072C100.652 116.567 111.456 110.687 115.559 108.088C119.251 105.626 130.329 99.7455 131.15 97.6941C132.381 94.9588 132.517 89.7618 131.97 88.5309C129.645 94.0015 121.44 96.3264 116.516 98.7882C109.952 102.07 94.6341 111.37 94.6341 111.37Z" fill="#C36202"/>
<path d="M88.2062 80.8721C88.2062 80.8721 54.289 90.5823 54.289 95.2323C54.289 98.7881 64.4095 100.019 73.8461 103.712C83.693 107.678 87.1121 112.328 95.5914 112.328C102.156 112.328 125.132 95.2323 125.132 95.2323C125.132 95.2323 130.329 94.6852 131.97 91.8132C133.612 88.9412 132.107 87.5735 128.688 85.7956C124.312 83.6074 122.123 83.0604 115.149 80.8721C106.943 78.4104 100.652 76.4957 94.7708 77.3163C88.89 78.1369 88.2062 80.8721 88.2062 80.8721Z" fill="#C56203"/>
<path d="M89.1636 81.2825C89.1636 81.2825 56.3405 90.8559 56.3405 95.0955C56.3405 98.3779 66.0506 99.6087 74.8035 103.028C83.9666 106.584 87.2489 111.097 95.0444 111.097C101.062 111.097 124.312 94.4117 124.312 94.4117C124.312 94.4117 129.098 94.0014 130.603 91.2662C132.244 88.3942 130.74 87.5736 127.184 85.7957C123.081 83.7442 120.756 83.1972 114.191 81.2825C106.532 78.9575 100.652 77.1796 95.1811 78.0002C89.7106 78.8207 89.1636 81.2825 89.1636 81.2825Z" fill="#F5DD7F"/>
<path d="M59.7595 92.6339C54.289 92.4971 56.4772 93.1809 58.8022 96.1897C57.5713 96.1897 56.3405 96.0529 55.5199 96.7368C58.6654 97.4206 55.9302 99.7455 54.6993 100.84C58.5287 101.66 57.0243 102.754 57.7081 104.122C64.9565 101.66 63.0419 106.037 65.7771 108.088C68.1021 106.584 69.333 104.395 72.6153 105.079C73.5726 105.216 74.9402 106.857 75.8976 106.857C77.2652 106.857 77.402 105.49 78.9064 105.49C79.0431 106.447 79.5902 107.267 80.1372 107.951C82.1887 105.9 82.3254 110.687 87.3857 112.191C87.9327 110.687 88.2062 108.635 89.8474 108.362C91.215 110.413 93.54 107.815 93.54 108.909C93.54 112.328 97.3694 112.738 98.3267 112.328C98.3267 112.328 98.6002 110.003 100.241 109.456C101.062 109.182 101.746 109.456 102.566 109.045C103.25 108.772 102.703 107.541 103.797 107.267C107.627 105.763 109.131 112.601 112.277 108.225C113.507 106.584 112.413 105.49 115.422 105.216C116.243 105.079 117.337 105.9 118.157 105.49C119.388 104.943 118.841 104.395 119.662 103.575C122.671 100.566 124.859 100.84 128.551 102.071C129.098 98.3779 127.594 99.7455 131.013 97.8309C130.466 97.147 129.919 96.4632 128.962 96.0529C129.782 94.6853 130.466 94.8221 130.876 93.1809C128.415 93.4544 126.773 94.9588 126.09 91.2662C123.901 91.403 122.123 94.1383 119.798 94.5485L59.7595 92.6339Z" fill="#719622"/>
<path d="M60.8536 93.1809C55.7934 93.0442 57.8448 93.5912 60.033 96.4633C58.8022 96.4633 56.7507 95.2324 55.5199 96.7368C58.3919 97.4206 57.7081 99.472 56.4772 100.429C60.033 101.25 57.0243 102.754 57.7081 103.985C65.6403 99.0617 64.4095 106.31 65.7771 107.951C67.8285 106.584 70.7006 102.891 73.5726 103.575C74.5299 103.712 74.9402 106.72 75.8975 106.72C77.1284 106.72 78.0858 103.848 79.4534 103.848C79.5902 104.806 80.1372 105.49 80.6843 106.037C82.5989 104.122 83.0092 109.319 87.5224 111.917C87.9327 110.55 88.2062 106.72 89.7106 106.447C92.0356 109.182 94.2238 105.49 94.087 106.447C93.54 110.003 97.6429 112.465 98.4634 112.191C98.4634 112.191 97.7796 108.088 99.4208 107.678C100.241 107.404 100.788 107.678 101.609 107.404C102.293 107.131 101.746 106.037 102.703 105.763C106.259 104.395 108.994 111.507 112.003 107.541C113.234 105.9 110.772 104.122 113.507 103.848C114.328 103.712 115.285 104.396 116.106 104.122C117.337 103.575 116.653 103.028 117.473 102.344C120.209 99.6088 125.406 100.976 128.688 102.207C128.004 98.2412 127.457 97.4206 131.15 97.9676C130.603 97.2838 128.825 96.053 128.004 95.6427C128.825 94.4118 130.603 94.8221 131.15 93.3177C126.09 94.1383 125.406 95.0956 126.363 91.403C124.312 91.5398 119.798 93.5912 117.61 94.0015L60.8536 93.1809Z" fill="#A2CA01"/>
<path d="M83.5563 107.541C84.2401 107.951 86.1548 110.687 87.1121 111.234C87.6592 110.003 86.8386 109.319 86.1548 109.045C85.7445 108.772 83.5563 107.541 83.5563 107.541Z" fill="#E0F557"/>
<path d="M60.7169 99.1985C57.9816 100.019 54.0155 100.566 49.2288 96.7368L48.8185 95.5059C48.8185 95.5059 52.6478 94.5486 50.8699 91.403C53.7419 89.078 51.5537 85.1119 51.5537 85.1119C54.289 85.2487 56.614 84.0178 56.614 80.0517C58.5287 82.1031 62.358 80.8723 63.8624 78.9576C63.9992 81.009 65.5036 84.5649 67.9653 84.4281C68.1021 86.8898 68.2388 88.9413 69.3329 91.1295C69.0594 91.403 63.5889 98.3779 60.7169 99.1985Z" fill="#719622"/>
<path d="M60.7168 97.8308C57.9816 98.6514 53.6052 99.472 48.6817 95.6426C50.1861 94.6853 51.8273 93.0441 50.7331 91.5397C55.1096 90.0354 51.417 85.2486 51.417 85.2486C56.4772 86.6163 56.4772 82.6502 56.4772 78.8208C58.3919 80.8722 62.2212 79.6414 63.7256 77.7267C63.8624 79.7781 65.3668 83.334 67.8285 83.1972C67.9653 85.6589 68.102 87.7104 69.1961 89.8986C69.0594 89.8986 63.5889 96.8735 60.7168 97.8308Z" fill="#A2CA01"/>
<path d="M55.1096 90.0353L56.4772 96.3264C56.4772 96.3264 59.2125 99.6088 71.7947 102.07C81.3681 103.985 92.8562 101.523 92.8562 101.523L98.8737 99.3352L94.6341 93.3177L55.1096 90.0353Z" fill="#FC1E00"/>
<path d="M55.1096 87.5737L54.9728 90.0354C54.9728 90.0354 59.2125 94.9589 70.5638 97.4206C79.4534 99.3353 91.6253 97.4206 91.6253 97.4206L91.8988 91.5398L55.1096 87.5737Z" fill="#D4002B"/>
<path d="M61.4007 95.369C61.4007 95.369 64.2727 97.9675 67.1447 99.0616C70.2903 100.156 76.5814 101.387 76.3079 100.292C76.0343 99.3351 69.3329 98.6513 66.5977 97.8308C64.4095 97.1469 61.4007 95.369 61.4007 95.369Z" fill="#FF7200"/>
<path d="M116.243 97.8308C117.063 101.66 111.866 106.037 104.481 107.814C97.0958 109.456 90.3944 107.814 89.4371 103.985C88.6165 100.156 93.8135 95.7794 101.199 94.0014C108.721 92.3603 115.422 94.0014 116.243 97.8308Z" fill="#BD2D03"/>
<path d="M116.516 97.147C117.063 100.976 111.593 105.079 104.071 106.31C96.5487 107.541 89.9841 105.353 89.4371 101.523C88.89 97.694 94.3605 93.5912 101.882 92.3603C109.404 91.1294 115.969 93.1809 116.516 97.147Z" fill="#BD2D03"/>
<path d="M114.738 97.4205C115.285 100.84 110.362 104.395 103.934 105.353C97.3693 106.447 91.6253 104.532 91.0782 101.113C90.5312 97.694 95.4546 94.1382 101.882 93.1809C108.584 92.0868 114.328 94.0014 114.738 97.4205Z" fill="#DB3401"/>
<path d="M101.472 105.079C99.6943 105.353 98.8738 104.806 99.5576 103.848L101.746 100.976C102.43 100.019 103.797 99.8822 104.755 100.429L107.763 102.481C108.721 103.164 108.037 103.848 106.259 104.259L101.472 105.079Z" fill="#BD2D03"/>
<path d="M112.687 100.566C112.277 101.523 110.909 101.934 109.541 101.387L105.438 100.019C104.071 99.6086 104.481 98.788 106.122 98.3777L111.456 97.0101C113.097 96.5998 114.191 97.0101 113.781 97.9675L112.687 100.566Z" fill="#BD2D03"/>
<path d="M110.499 94.2749C112.003 94.5484 112.003 95.369 110.499 96.0528L105.712 98.1043C104.208 98.7881 102.977 98.5145 103.113 97.5572L103.387 94.6852C103.524 93.7278 104.755 93.1808 106.259 93.5911L110.499 94.2749Z" fill="#BD2D03"/>
<path d="M97.9164 94.8219C99.2841 94.0013 100.652 94.1381 101.062 94.9586L102.293 97.6939C102.703 98.5145 101.609 99.1983 99.9679 98.9248L94.9076 98.5145C93.2665 98.3777 92.993 97.6939 94.3606 96.8733L97.9164 94.8219Z" fill="#BD2D03"/>
<path d="M92.3091 101.387C91.6253 100.566 92.4459 99.8822 94.2238 99.7454L99.6943 99.3351C101.472 99.1984 102.019 99.7454 100.925 100.703L97.5061 103.301C96.412 104.122 94.9076 104.259 94.2238 103.438L92.3091 101.387Z" fill="#BD2D03"/>
<path d="M102.43 99.0616C102.43 99.0616 99.0105 98.7881 99.4208 97.9675C99.8311 97.2837 101.472 97.9675 101.609 98.1043C101.883 98.5146 102.43 99.0616 102.43 99.0616Z" fill="#DB3401"/>
<path d="M101.746 99.7455C101.746 99.7455 99.1473 101.797 98.0532 101.113C96.9591 100.429 99.284 99.8822 99.5576 99.7455C100.241 99.7455 101.746 99.7455 101.746 99.7455Z" fill="#DB3401"/>
<path d="M102.84 99.4719C102.84 99.4719 104.892 100.977 103.524 101.524C102.156 102.071 102.019 100.84 102.156 100.703C102.43 100.293 102.84 99.4719 102.84 99.4719Z" fill="#DB3401"/>
<path d="M104.344 99.3353C104.344 99.3353 108.037 97.8309 108.447 98.7882C108.857 99.7456 106.396 99.7456 106.122 99.7456C105.575 99.7456 104.344 99.3353 104.344 99.3353Z" fill="#DB3401"/>
<path d="M103.66 98.5154C103.66 98.5154 103.524 96.3264 105.439 96.3264C107.354 96.3264 105.849 97.5577 105.713 97.6945C105.029 98.1049 103.66 98.5154 103.66 98.5154Z" fill="#DB3401"/>
<path d="M98.6009 97.0105C98.6009 97.0105 95.8647 96.8737 96.8224 96.1896C97.9169 95.6424 98.6009 97.0105 98.6009 97.0105Z" fill="#F4451C"/>
<path d="M98.054 97.6941C98.054 97.6941 95.3178 98.515 95.5914 97.6941C95.8651 96.8733 98.054 97.6941 98.054 97.6941Z" fill="#F4451C"/>
<path d="M99.6947 96.7372C99.6947 96.7372 97.6425 95.9163 99.1474 95.5059C100.516 95.0954 99.6947 96.7372 99.6947 96.7372Z" fill="#F4451C"/>
<path d="M96.5496 101.387C96.5496 101.387 94.7711 102.755 94.0871 102.071C93.5398 101.523 96.5496 101.387 96.5496 101.387Z" fill="#F4451C"/>
<path d="M97.37 101.797C97.37 101.797 97.0964 103.302 95.8651 103.028C94.6338 102.754 97.37 101.797 97.37 101.797Z" fill="#F4451C"/>
<path d="M96.6864 100.84C96.6864 100.84 93.9502 101.661 94.2239 100.84C94.3607 100.019 96.6864 100.84 96.6864 100.84Z" fill="#F4451C"/>
<path d="M103.387 102.754C103.387 102.754 105.302 103.712 103.797 103.986C102.293 104.259 103.387 102.754 103.387 102.754Z" fill="#F4451C"/>
<path d="M104.344 102.207C104.344 102.207 107.08 102.344 106.123 103.028C105.028 103.712 104.344 102.207 104.344 102.207Z" fill="#F4451C"/>
<path d="M102.293 102.618C102.293 102.618 102.841 103.986 101.336 103.986C99.8307 103.986 102.293 102.618 102.293 102.618Z" fill="#F4451C"/>
<path d="M109.678 99.1986C109.678 99.1986 112.414 98.3777 112.141 99.1986C112.004 99.8826 109.678 99.1986 109.678 99.1986Z" fill="#F4451C"/>
<path d="M109.405 98.6517C109.405 98.6517 111.046 97.1468 111.73 97.8308C112.414 98.378 109.405 98.6517 109.405 98.6517Z" fill="#F4451C"/>
<path d="M108.994 99.7454C108.994 99.7454 111.867 99.6086 110.91 100.429C110.089 101.113 108.994 99.7454 108.994 99.7454Z" fill="#F4451C"/>
<path d="M106.669 95.6431C106.669 95.6431 106.669 94.1382 107.901 94.275C109.269 94.5486 106.669 95.6431 106.669 95.6431Z" fill="#F4451C"/>
<path d="M105.439 95.6431C105.439 95.6431 103.797 94.5486 105.302 94.275C106.807 94.0014 105.439 95.6431 105.439 95.6431Z" fill="#F4451C"/>
<path d="M107.353 96.0532C107.353 96.0532 108.858 94.5483 109.542 95.0956C110.363 95.6428 107.353 96.0532 107.353 96.0532Z" fill="#F4451C"/>
<g opacity="0.5">
<path d="M108.721 105.626C108.721 105.626 105.302 107.541 102.156 107.678C98.8737 107.815 92.4459 106.994 92.9929 106.037C93.54 105.216 97.7796 106.584 100.652 106.72C102.977 106.857 108.721 105.626 108.721 105.626Z" fill="#DB3401"/>
</g>
<path d="M131.697 91.1294C131.013 94.9588 124.448 97.147 116.926 95.9161C109.405 94.6853 103.934 90.5824 104.481 86.753C105.165 82.9237 111.729 80.7354 119.251 81.9663C126.773 83.1972 132.381 87.3001 131.697 91.1294Z" fill="#BD2D03"/>
<path d="M130.056 90.8559C129.509 94.275 123.765 96.0529 117.2 94.9588C110.635 93.8647 105.849 90.3088 106.396 86.8898C106.943 83.4707 112.687 81.6928 119.251 82.7869C125.679 83.881 130.603 87.5736 130.056 90.8559Z" fill="#DB3401"/>
<path d="M114.875 93.8647C113.097 93.5912 112.413 92.7706 113.371 92.0868L116.379 90.0354C117.337 89.3516 118.704 89.6251 119.388 90.5824L121.576 93.4544C122.26 94.4118 121.44 94.9588 119.662 94.6853L114.875 93.8647Z" fill="#BD2D03"/>
<path d="M126.91 93.3176C126.226 94.1382 124.722 94.0014 123.628 93.1808L120.209 90.5823C119.115 89.7618 119.662 89.078 121.44 89.2147L126.91 89.625C128.688 89.7618 129.509 90.4456 128.825 91.2662L126.91 93.3176Z" fill="#BD2D03"/>
<path d="M126.91 86.6163C128.278 87.4369 128.004 88.1207 126.363 88.2574L121.166 88.6677C119.525 88.8045 118.431 88.2574 118.841 87.3001L120.072 84.5648C120.482 83.7443 121.85 83.6075 123.218 84.4281L126.91 86.6163Z" fill="#BD2D03"/>
<path d="M114.738 83.1972C116.243 82.9237 117.61 83.4707 117.61 84.2913L117.884 87.1633C118.021 88.1207 116.79 88.2574 115.285 87.7104L110.499 85.6589C108.994 84.9751 108.994 84.2913 110.499 83.881L114.738 83.1972Z" fill="#BD2D03"/>
<path d="M107.353 87.7103C106.943 86.753 108.037 86.3427 109.678 86.753L115.012 88.1206C116.653 88.5309 117.063 89.3515 115.696 89.7618L111.593 91.1294C110.225 91.5397 108.857 91.1294 108.447 90.172L107.353 87.7103Z" fill="#BD2D03"/>
<path d="M117.748 88.6684C117.748 88.6684 114.601 87.3003 115.149 86.753C115.696 86.2058 117.064 87.4371 117.201 87.5739C117.337 87.8475 117.748 88.6684 117.748 88.6684Z" fill="#DB3401"/>
<path d="M116.926 89.078C116.926 89.078 113.781 90.1721 112.96 89.2147C112.14 88.2574 114.602 88.3941 114.875 88.3941C115.422 88.5309 116.926 89.078 116.926 89.078Z" fill="#DB3401"/>
<path d="M118.021 89.0781C118.021 89.0781 119.526 91.1302 118.158 91.267C116.653 91.4038 116.926 90.1725 117.063 90.0357C117.337 89.7621 118.021 89.0781 118.021 89.0781Z" fill="#DB3401"/>
<path d="M119.525 89.4883C119.525 89.4883 123.491 89.2148 123.628 90.3089C123.765 91.2662 121.44 90.5824 121.166 90.5824C120.482 90.1721 119.525 89.4883 119.525 89.4883Z" fill="#DB3401"/>
<path d="M118.978 88.5309C118.978 88.5309 119.525 86.4795 121.303 87.0265C123.081 87.5736 121.303 88.3942 121.029 88.3942C120.482 88.3942 118.978 88.5309 118.978 88.5309Z" fill="#DB3401"/>
<path d="M114.739 85.5226C114.739 85.5226 112.139 84.565 113.371 84.2913C114.465 83.8809 114.739 85.5226 114.739 85.5226Z" fill="#F4451C"/>
<path d="M114.055 85.9328C114.055 85.9328 111.182 85.796 111.729 85.1119C112.14 84.4279 114.055 85.9328 114.055 85.9328Z" fill="#F4451C"/>
<path d="M115.833 85.5227C115.833 85.5227 114.191 84.0178 115.696 84.1546C117.201 84.2914 115.833 85.5227 115.833 85.5227Z" fill="#F4451C"/>
<path d="M111.457 88.9413C111.457 88.9413 109.268 89.6254 108.994 88.9413C108.584 88.1204 111.457 88.9413 111.457 88.9413Z" fill="#F4451C"/>
<path d="M112.14 89.6249C112.14 89.6249 111.456 90.993 110.362 90.309C109.131 89.6249 112.14 89.6249 112.14 89.6249Z" fill="#F4451C"/>
<path d="M111.73 88.3943C111.73 88.3943 108.857 88.3943 109.405 87.7103C109.815 87.0262 111.73 88.3943 111.73 88.3943Z" fill="#F4451C"/>
<path d="M117.474 92.3603C117.474 92.3603 118.979 93.8652 117.474 93.7284C115.969 93.5916 117.474 92.3603 117.474 92.3603Z" fill="#F4451C"/>
<path d="M118.568 92.2234C118.568 92.2234 121.167 93.1811 119.936 93.4547C118.704 93.8652 118.568 92.2234 118.568 92.2234Z" fill="#F4451C"/>
<path d="M116.38 91.95C116.38 91.95 116.38 93.4549 115.012 92.9077C113.781 92.3604 116.38 91.95 116.38 91.95Z" fill="#F4451C"/>
<path d="M124.585 90.9927C124.585 90.9927 127.458 90.9927 127.048 91.6767C126.637 92.4976 124.585 90.9927 124.585 90.9927Z" fill="#F4451C"/>
<path d="M124.585 90.4457C124.585 90.4457 126.637 89.6248 127.048 90.4457C127.458 91.1297 124.585 90.4457 124.585 90.4457Z" fill="#F4451C"/>
<path d="M123.765 91.403C123.765 91.403 126.501 92.2238 125.406 92.6342C124.312 92.9079 123.765 91.403 123.765 91.403Z" fill="#F4451C"/>
<path d="M122.807 86.6166C122.807 86.6166 123.218 85.1117 124.449 85.7958C125.68 86.343 122.807 86.6166 122.807 86.6166Z" fill="#F4451C"/>
<path d="M121.713 86.3432C121.713 86.3432 120.482 84.8383 121.987 85.1119C123.492 85.2487 121.713 86.3432 121.713 86.3432Z" fill="#F4451C"/>
<path d="M123.354 87.1635C123.354 87.1635 125.133 86.2058 125.817 87.0267C126.227 87.8475 123.354 87.1635 123.354 87.1635Z" fill="#F4451C"/>
<path d="M85.7445 94.8219C85.7445 96.1896 84.2401 97.2837 82.3254 97.2837C80.4107 97.2837 78.7696 96.3263 78.7696 94.9587C78.7696 93.5911 80.274 92.497 82.1886 92.497C84.1033 92.3602 85.7445 93.4543 85.7445 94.8219Z" fill="#FFE138"/>
<path d="M84.7871 94.9589C84.7871 96.053 83.4195 97.0103 81.7783 97.1471C80.1372 97.1471 78.7696 96.3265 78.7696 95.0956C78.7696 94.0015 80.1372 93.0442 81.7783 92.9074C83.4195 92.9074 84.7871 93.8648 84.7871 94.9589Z" fill="#D96500"/>
<path d="M84.6504 95.2323C84.6504 96.1896 83.5563 97.0102 82.0519 97.147C80.5475 97.2837 79.4534 96.3264 79.4534 95.369C79.4534 94.4117 80.5475 93.5911 82.0519 93.4543C83.5563 93.4543 84.6504 94.2749 84.6504 95.2323Z" fill="#FF9E03"/>
<path d="M73.7093 93.5912C73.4358 94.275 72.2049 94.4118 71.1108 93.7279C70.0167 93.1809 69.3329 92.0868 69.7432 91.2662C70.0167 90.5824 71.2476 90.4456 72.3417 91.1294C73.4358 91.8133 74.1196 92.7706 73.7093 93.5912Z" fill="#FFE138"/>
<path d="M73.1623 93.3177C72.8888 93.8647 71.9314 94.0015 70.9741 93.4544C70.0168 92.9074 69.4697 91.95 69.7432 91.403C70.0168 90.8559 70.9741 90.7192 71.9314 91.2662C72.8888 91.8133 73.4358 92.7706 73.1623 93.3177Z" fill="#D96500"/>
<path d="M73.0256 93.4546C72.7521 94.0016 71.9315 94.0016 71.111 93.5913C70.2904 93.1811 69.7433 92.3605 70.0169 91.8134C70.2904 91.2664 71.111 91.2664 71.9315 91.6767C72.7521 92.087 73.2992 92.9075 73.0256 93.4546Z" fill="#FF9E03"/>
<path d="M132.381 95.6426C130.876 95.6426 129.782 94.275 129.782 92.9073C129.782 91.4029 131.15 90.3088 132.517 90.3088C131.834 87.7104 130.74 84.9751 129.235 82.3766C125.132 75.1282 122.397 71.9826 122.397 71.9826L95.0444 66.5121C95.0444 66.5121 67.2815 74.9914 59.8963 78.2737C56.7508 79.7781 55.6567 81.4193 57.2978 88.2574C59.2125 96.7367 64.136 105.079 64.136 105.079L69.0594 104.806C69.0594 104.806 68.9227 101.797 71.9314 101.387C74.6667 101.113 74.6667 103.301 75.077 104.122C82.0519 103.575 111.866 97.5573 119.388 99.472C128.141 101.66 134.159 101.387 134.159 101.387C134.159 100.429 134.022 98.3779 133.612 95.3691C133.338 95.5058 132.928 95.6426 132.381 95.6426Z" fill="#CF5800"/>
<path d="M132.381 94.5485C130.876 94.5485 129.782 93.1809 129.782 91.8132C129.782 90.3088 131.15 89.2147 132.517 89.2147C131.834 86.6162 130.74 83.881 129.235 81.2825C125.132 74.034 122.397 70.8885 122.397 70.8885L95.0444 65.418C95.0444 65.418 67.2815 73.8973 59.8963 77.1796C56.7508 78.684 55.6567 80.3251 57.2978 87.1633C59.2125 95.6426 64.136 103.985 64.136 103.985L69.0594 103.712C69.0594 103.712 68.9227 100.703 71.9314 100.293C74.6667 100.019 74.6667 102.207 75.077 103.028C82.0519 102.481 111.866 96.4632 119.388 98.3778C128.141 100.566 134.159 100.293 134.159 100.293C134.022 98.2411 133.885 96.3264 133.612 94.275C133.201 94.4117 132.791 94.5485 132.381 94.5485Z" fill="#F4BE31"/>
<path d="M126.5 91.9499C126.773 92.9073 125.816 94.1381 124.312 94.5484C122.807 94.9587 121.303 94.6852 121.029 93.7279C120.756 92.7705 121.713 91.5397 123.218 91.1294C124.722 90.5823 126.09 90.9926 126.5 91.9499Z" fill="#FFE138"/>
<path d="M125.679 92.2235C125.953 93.0441 125.132 94.0014 123.765 94.4117C122.397 94.822 121.166 94.5485 120.893 93.7279C120.619 92.9073 121.44 91.95 122.807 91.5397C124.175 91.1294 125.542 91.4029 125.679 92.2235Z" fill="#D96500"/>
<path d="M125.679 92.4969C125.953 93.1808 125.132 94.1381 124.038 94.4116C122.944 94.8219 121.85 94.4116 121.576 93.7278C121.303 93.044 122.123 92.0867 123.218 91.8131C124.448 91.5396 125.542 91.8131 125.679 92.4969Z" fill="#FF9E03"/>
<path d="M67.4183 96.3264C67.6918 97.147 66.8712 98.1043 65.5036 98.5146C64.2727 98.9249 62.9051 98.6514 62.7684 97.8308C62.4948 97.0102 63.3154 96.0529 64.683 95.6426C65.9139 95.2323 67.1448 95.5058 67.4183 96.3264Z" fill="#FFE138"/>
<path d="M66.7344 96.6002C67.008 97.284 66.1874 98.1045 65.0933 98.5148C63.9992 98.9251 62.9051 98.5148 62.7683 97.831C62.4948 97.1472 63.3154 96.3266 64.4095 95.9163C65.5036 95.6428 66.5977 95.9163 66.7344 96.6002Z" fill="#D96500"/>
<path d="M66.7346 96.7369C66.8714 97.284 66.3244 98.1046 65.367 98.3781C64.4097 98.6516 63.4523 98.3781 63.3156 97.831C63.1788 97.284 63.7259 96.4634 64.6832 96.1899C65.6405 95.9164 66.5979 96.1899 66.7346 96.7369Z" fill="#FF9E03"/>
<path d="M54.5625 87.4368C55.6566 90.0353 63.0418 91.4029 72.4785 95.0955C82.3254 99.0617 85.7445 103.712 94.2238 103.712C100.788 103.712 127.457 85.3854 131.15 82.7869C132.654 81.6928 132.791 74.5811 131.97 73.6238C130.329 71.5723 121.029 69.9312 114.054 67.7429C105.849 65.2812 101.746 64.1871 95.8649 65.0077C91.215 65.6915 63.9992 73.6238 54.6993 80.0516C53.0581 81.009 53.6052 85.1118 54.5625 87.4368Z" fill="#E58619"/>
<path d="M94.3606 96.4632C93.9503 99.1985 91.6253 101.934 89.3004 103.165C92.1724 104.122 93.9503 104.395 96.2753 103.575C100.378 102.07 111.182 95.7794 115.285 93.1809C118.978 90.7192 130.056 84.8383 130.876 82.7869C132.107 80.0516 132.244 74.8546 131.697 73.6238C129.372 79.0943 121.166 81.4193 116.243 83.881C109.678 87.1633 94.3606 96.4632 94.3606 96.4632Z" fill="#C36202"/>
<path d="M87.7959 66.2386C87.7959 66.2386 53.8787 75.9488 53.8787 80.5987C53.8787 84.1546 63.9992 85.3854 73.4358 89.078C83.2828 93.0441 86.7018 97.6941 95.1811 97.6941C101.746 97.6941 124.722 80.5987 124.722 80.5987C124.722 80.5987 129.919 80.0517 131.56 77.1796C133.201 74.3076 131.697 72.94 128.278 71.1621C123.901 68.9739 121.713 68.4268 114.738 66.2386C106.532 63.7769 100.241 61.8622 94.3606 62.6828C88.4798 63.5033 87.7959 66.2386 87.7959 66.2386Z" fill="#C56203"/>
<path d="M88.7533 66.6489C88.7533 66.6489 55.9301 76.2223 55.9301 80.4619C55.9301 83.7442 65.6403 84.9751 74.3931 88.3942C83.5563 92.0868 86.8386 96.4632 94.6341 96.4632C100.652 96.4632 123.901 79.7781 123.901 79.7781C123.901 79.7781 128.688 79.3678 130.192 76.6326C131.834 73.7605 130.329 72.94 126.773 71.162C122.67 69.1106 120.346 68.5636 113.781 66.6489C106.122 64.3239 100.241 62.546 94.7708 63.3666C89.3003 64.1871 88.7533 66.6489 88.7533 66.6489Z" fill="#F5DD7F"/>
<path opacity="0.7" d="M126.773 71.162C122.671 69.1106 120.346 68.5636 113.781 66.6489C106.122 64.3239 100.241 62.546 94.7709 63.3666C92.5826 63.6401 91.215 64.3239 90.2577 64.871C92.1724 65.418 104.071 66.1018 112.14 71.162C117.884 74.8546 115.832 85.2486 87.6592 95.2323C87.6592 95.2323 90.5312 96.4632 94.4973 96.4632C100.515 96.4632 123.765 79.7781 123.765 79.7781C123.765 79.7781 128.551 79.3678 130.056 76.6326C131.834 73.7605 130.329 72.94 126.773 71.162Z" fill="#FBBA56"/>
<path d="M69.7441 78.4108C69.7441 78.8212 69.1968 79.2316 68.5128 79.2316C67.8287 79.2316 67.2815 78.8212 67.2815 78.4108C67.2815 78.0003 67.8287 77.5899 68.5128 77.5899C69.1968 77.5899 69.7441 78.0003 69.7441 78.4108Z" fill="#FBBA56"/>
<path d="M74.6674 82.7871C74.6674 83.1975 74.2569 83.4711 73.7097 83.4711C73.1624 83.4711 72.752 83.1975 72.752 82.7871C72.752 82.3766 73.1624 82.103 73.7097 82.103C74.2569 82.103 74.6674 82.3766 74.6674 82.7871Z" fill="#FBBA56"/>
<path d="M93.404 70.4787C93.2672 70.8892 92.5831 71.026 92.0359 70.7524C91.4886 70.4787 91.0782 69.9315 91.215 69.5211C91.3518 69.1106 92.0359 68.9738 92.5831 69.2475C93.2672 69.5211 93.5408 70.0683 93.404 70.4787Z" fill="#FBBA56"/>
<path d="M94.2243 79.3681C94.0875 79.6417 93.6771 79.7785 93.2667 79.5049C92.8562 79.3681 92.5826 78.9576 92.7194 78.684C92.8562 78.4104 93.2667 78.2736 93.6771 78.5472C94.0875 78.684 94.3611 79.0945 94.2243 79.3681Z" fill="#FBBA56"/>
<path d="M82.326 70.8888C82.326 71.2992 81.9156 71.5728 81.3684 71.5728C80.8211 71.5728 80.4107 71.2992 80.4107 70.8888C80.4107 70.4783 80.8211 70.2047 81.3684 70.2047C81.9156 70.2047 82.326 70.4783 82.326 70.8888Z" fill="#FBBA56"/>
<path d="M90.9422 90.5827C90.9422 90.9931 90.5317 91.2667 89.9845 91.2667C89.4373 91.2667 89.0268 90.9931 89.0268 90.5827C89.0268 90.1722 89.4373 89.8986 89.9845 89.8986C90.5317 89.8986 90.9422 90.1722 90.9422 90.5827Z" fill="#FBBA56"/>
<path d="M110.363 80.0518C110.363 80.4623 109.952 80.7359 109.405 80.7359C108.858 80.7359 108.447 80.4623 108.447 80.0518C108.447 79.6414 108.858 79.3678 109.405 79.3678C109.815 79.3678 110.363 79.6414 110.363 80.0518Z" fill="#FBBA56"/>
<path d="M100.379 83.4709C100.379 83.7445 99.9683 84.0181 99.5578 84.0181C99.1474 84.0181 98.737 83.7445 98.737 83.4709C98.737 83.1973 99.1474 82.9236 99.5578 82.9236C100.105 82.9236 100.379 83.1973 100.379 83.4709Z" fill="#FBBA56"/>
<path d="M88.4804 80.8724C88.4804 81.1461 88.07 81.4197 87.5227 81.4197C86.9755 81.4197 86.5651 81.1461 86.5651 80.8724C86.5651 80.5988 86.9755 80.3252 87.5227 80.3252C88.07 80.3252 88.4804 80.5988 88.4804 80.8724Z" fill="#FBBA56"/>
<path d="M121.987 75.4019C121.987 75.6755 121.577 75.9492 121.03 75.9492C120.482 75.9492 120.072 75.6755 120.072 75.4019C120.072 75.1283 120.482 74.8547 121.03 74.8547C121.577 74.8547 121.987 75.1283 121.987 75.4019Z" fill="#FBBA56"/>
<path d="M109.268 68.5637C109.268 68.8373 108.858 69.1109 108.311 69.1109C107.763 69.1109 107.353 68.8373 107.353 68.5637C107.353 68.29 107.763 68.0164 108.311 68.0164C108.858 67.8796 109.268 68.1532 109.268 68.5637Z" fill="#FBBA56"/>
<path d="M104.208 71.4357C104.208 71.7093 103.798 71.983 103.25 71.983C102.703 71.983 102.293 71.7093 102.293 71.4357C102.293 71.1621 102.703 70.8885 103.25 70.8885C103.798 70.8885 104.208 71.1621 104.208 71.4357Z" fill="#FBBA56"/>
<path d="M81.2319 88.9415C81.2319 89.2151 80.8214 89.4888 80.411 89.4888C80.0006 89.4888 79.5901 89.2151 79.5901 88.9415C79.5901 88.6679 80.0006 88.3943 80.411 88.3943C80.8214 88.3943 81.2319 88.6679 81.2319 88.9415Z" fill="#FBBA56"/>
<path d="M80.4113 77.59C80.4113 77.8636 80.0008 78.1373 79.5904 78.1373C79.18 78.1373 78.7696 77.8636 78.7696 77.59C78.7696 77.3164 79.18 77.0428 79.5904 77.0428C80.1377 77.0428 80.4113 77.3164 80.4113 77.59Z" fill="#FBBA56"/>
<path d="M60.4439 80.3254C60.4439 80.5991 60.0335 80.8727 59.623 80.8727C59.2126 80.8727 58.8022 80.5991 58.8022 80.3254C58.8022 80.0518 59.2126 79.7782 59.623 79.7782C60.0335 79.7782 60.4439 80.0518 60.4439 80.3254Z" fill="#FBBA56"/>
<path d="M105.712 84.0179C105.712 84.2916 105.302 84.5652 104.892 84.5652C104.481 84.5652 104.071 84.2916 104.071 84.0179C104.071 83.7443 104.481 83.4707 104.892 83.4707C105.439 83.4707 105.712 83.7443 105.712 84.0179Z" fill="#FBBA56"/>
<path d="M112.277 68.5637C112.277 68.8373 111.867 69.1109 111.456 69.1109C111.046 69.1109 110.635 68.8373 110.635 68.5637C110.635 68.29 111.046 68.0164 111.456 68.0164C111.867 68.0164 112.277 68.29 112.277 68.5637Z" fill="#FBBA56"/>
<path d="M91.6253 68.4269C87.7959 71.0254 93.8135 74.1709 95.3179 69.7945C94.7708 68.9739 93.9503 68.5636 92.9929 68.4269H91.6253Z" fill="#E58619"/>
<path d="M109.541 76.0856C106.669 77.4532 107.763 80.8723 110.909 80.1884C113.644 79.6414 113.781 75.812 110.499 76.0856H109.541Z" fill="#E58619"/>
<path d="M81.6416 74.3075C81.3681 76.6324 80.6842 80.5986 88.343 84.2912C93.6767 86.8897 105.165 86.2058 109.815 83.4706C105.575 89.2146 92.1723 89.0779 86.5651 86.4794C81.0945 83.8809 79.7269 79.5045 79.5901 75.5383C79.5901 72.1193 81.6416 73.6236 81.6416 74.3075Z" fill="#E58619"/>
<path d="M92.4459 68.837C89.8474 70.615 93.9503 72.8032 95.0444 69.7944C94.6341 69.2473 94.087 68.9738 93.4032 68.837H92.4459Z" fill="#C36202"/>
<path d="M110.088 76.9061C107.49 78.684 111.593 80.8723 112.687 77.8635C112.277 77.3164 111.729 77.0429 111.046 76.9061H110.088Z" fill="#C36202"/>
<path d="M81.0946 74.3076C80.8211 76.6326 81.2313 81.5561 88.7533 85.2487C94.0871 87.8472 105.575 86.0692 110.225 83.334C105.985 87.4369 92.5827 88.2575 86.9754 85.659C81.5049 83.0605 80.1372 80.7355 80.0005 76.7694C79.8637 73.4871 81.0946 73.6238 81.0946 74.3076Z" fill="#C36202"/>
<path d="M41.023 116.294C46.0832 124.773 57.7081 127.098 66.7345 121.491C75.8976 116.02 79.0431 104.669 73.9829 96.1897C68.9227 87.8471 57.2978 85.5222 48.2715 91.1295C39.1083 96.6 35.826 107.951 41.023 116.294Z" fill="#C8011E"/>
<path d="M59.6228 88.1206C56.3404 88.6676 56.4772 92.0867 58.2551 93.3176C59.6228 94.4117 64.1359 93.4543 67.4183 98.6513C70.1535 103.301 70.8373 108.362 65.7771 115.063C62.2213 119.85 55.6566 122.585 47.9979 120.944C44.0318 120.123 42.8009 118.755 42.1171 118.072C47.5876 125.183 58.2551 126.825 66.7344 121.764C75.8976 116.294 79.0431 104.942 73.9829 96.4631C72.8888 94.5484 71.3844 93.0441 69.7432 91.8132C68.1021 90.4456 63.1786 87.9838 59.6228 88.1206Z" fill="#A30429"/>
<path opacity="0.3" d="M52.6479 98.241C50.7332 100.156 47.0406 102.344 46.0833 98.3777C45.2627 94.6851 51.1435 89.2146 54.8361 90.3087C57.1611 91.1293 55.5199 95.3689 52.6479 98.241Z" fill="#3E6B12"/>
<path d="M39.6554 113.832C36.5098 105.9 39.7921 96.3264 47.8611 91.2662C46.767 93.3176 40.7495 100.293 46.4935 102.344C51.417 104.122 55.3831 98.5146 57.7081 98.2411C60.0331 97.9676 61.9477 99.472 62.7683 100.703C64.683 103.712 64.4095 109.866 58.8022 114.379C53.6052 118.345 44.0318 118.345 39.6554 113.832Z" fill="#E5393B"/>
<path d="M50.5964 95.7793C50.0494 96.3264 48.8185 97.0102 48.545 95.9161C48.2715 94.822 50.1861 93.1808 51.417 93.4543C52.2376 93.5911 51.5538 94.9587 50.5964 95.7793Z" fill="#600606"/>
<path d="M50.5964 95.7793C50.5964 95.7793 47.7244 92.9072 46.9038 90.172C45.9465 86.8897 48.1347 85.522 48.1347 85.522L44.8524 85.1118C44.8524 85.1118 43.6215 87.3 44.1686 89.6249C44.9891 93.4543 50.1861 96.1896 50.1861 96.1896L50.5964 95.7793Z" fill="#7C201E"/>
<g opacity="0.5">
<path d="M45.1259 105.626C46.22 106.447 46.4935 107.951 45.8097 108.909C45.1259 110.003 43.6215 110.139 42.5274 109.319C41.4333 108.498 41.1598 106.994 41.8436 106.037C42.5274 105.079 44.0318 104.942 45.1259 105.626Z" fill="white"/>
</g>
<g opacity="0.5">
<path d="M48.2721 108.088C48.8193 108.499 48.9561 109.183 48.5457 109.593C48.272 110.14 47.4512 110.14 47.0408 109.73C46.4935 109.319 46.3567 108.635 46.7671 108.225C47.0408 107.815 47.7248 107.678 48.2721 108.088Z" fill="white"/>
</g>
<path d="M49.3655 100.429C49.6391 100.293 49.7758 100.293 49.9126 100.156C50.1861 100.019 50.5964 99.7455 51.1435 99.472C51.417 99.3352 51.6905 99.0617 51.8273 98.9249C52.1008 98.6514 52.3743 98.5146 52.6478 98.2411C52.9214 97.9676 53.1949 97.6941 53.3317 97.4205C53.6052 97.147 53.742 96.8735 54.0155 96.4632L54.1522 96.1897C54.1522 96.0529 54.289 96.0529 54.289 95.9161C54.4258 95.7794 54.4258 95.6426 54.5625 95.3691C54.6993 95.2323 54.6993 95.0956 54.8361 94.822C54.8361 94.6853 54.9728 94.6853 54.9728 94.5485C54.9728 94.4117 55.1096 94.4117 55.1096 94.275C55.2463 94.0014 55.3831 93.5912 55.5199 93.3176C55.6566 93.0441 55.6566 92.6338 55.7934 92.3603C55.7934 92.0868 55.9302 91.8132 55.9302 91.5397C55.9302 91.2662 55.9302 91.1294 55.9302 90.9927C55.9302 90.8559 55.7934 90.7191 55.7934 90.5824C55.7934 90.4456 55.6566 90.4456 55.6566 90.4456C55.6566 90.4456 55.6566 90.4456 55.7934 90.5824C55.7934 90.7191 55.9302 90.7191 56.0669 90.9927C56.2037 91.1294 56.2037 91.403 56.2037 91.6765C56.2037 91.95 56.2037 92.2235 56.2037 92.4971C56.2037 92.7706 56.2037 93.1809 56.0669 93.4544C55.9302 93.8647 55.9302 94.1382 55.7934 94.5485C55.7934 94.6853 55.7934 94.6853 55.6566 94.822C55.6566 94.9588 55.6566 94.9588 55.5199 95.0956C55.3831 95.2323 55.3831 95.5058 55.2463 95.6426C55.1096 96.0529 54.8361 96.3264 54.6993 96.7367C54.4258 97.147 54.289 97.4205 54.0155 97.694C53.742 97.9676 53.4684 98.2411 53.1949 98.5146C52.9214 98.7882 52.6479 99.0617 52.3743 99.1985C52.1008 99.3352 51.8273 99.6087 51.5537 99.7455C51.2802 99.8823 51.0067 100.019 50.7332 100.019C50.4596 100.156 50.3229 100.156 50.1861 100.156C50.0494 100.156 49.9126 100.156 49.7758 100.293C49.3655 100.429 49.3655 100.429 49.3655 100.429Z" fill="#E5393B"/>
<path d="M50.5964 95.6426C50.5964 95.6426 47.7244 92.7706 46.9038 90.0353C45.9465 86.753 48.1347 85.3854 48.1347 85.3854L46.3568 85.2486C46.3568 85.2486 45.1259 87.4368 45.673 89.7618C46.4935 93.5911 50.1861 95.9161 50.1861 95.9161L50.5964 95.6426Z" fill="#600606"/>
<path d="M40.7495 92.7706C40.7495 92.7706 38.5613 86.7531 35.1422 85.1119C32.1334 83.7443 28.4408 84.1546 25.8423 85.3854C24.3379 86.0693 20.9189 86.7531 20.9189 86.7531C20.9189 86.7531 21.3291 87.1634 22.1497 88.9413C23.5174 91.9501 23.1071 93.8647 27.21 96.1897C29.8084 97.6941 33.9113 98.2412 38.8348 94.6853C40.6127 93.5912 40.7495 92.7706 40.7495 92.7706Z" fill="#FFBD33"/>
<g opacity="0.3">
<path d="M40.7495 92.7706C40.7495 92.7706 35.9628 92.9074 31.1761 91.5398C26.6629 90.1721 21.0556 86.7531 21.0556 86.7531C21.0556 86.7531 21.4659 87.1633 22.2865 88.9413C23.6541 91.95 23.2438 93.8647 27.3467 96.1897C29.9452 97.6941 34.0481 98.2411 38.9716 94.6853C40.6127 93.5912 40.7495 92.7706 40.7495 92.7706Z" fill="#BB362E"/>
</g>
<path d="M49.092 95.9162C48.9553 95.9162 48.9553 95.7794 48.8185 95.7794C48.6818 95.6426 48.4082 95.5059 47.9979 95.3691C47.3141 94.9588 46.22 94.5485 44.8524 94.1382C43.4848 93.728 41.9804 93.3177 40.2024 93.0442C39.3819 92.9074 38.4245 92.9074 37.4672 92.9074C37.1937 92.9074 37.0569 92.9074 36.7834 92.9074C36.5098 92.9074 36.3731 92.9074 36.0996 92.9074C35.826 92.9074 35.6893 92.9074 35.4157 92.9074C35.279 92.9074 35.1422 92.9074 35.0055 92.9074C34.8687 92.9074 34.7319 92.9074 34.5952 92.9074C34.1849 92.9074 33.6378 92.7706 33.2275 92.7706C32.8172 92.6339 32.2702 92.6339 31.8599 92.4971C30.9026 92.2236 30.082 91.95 29.2614 91.5398C28.4408 91.1295 27.6203 90.8559 26.9364 90.4457C26.2526 90.0354 25.5688 89.6251 24.885 89.3515C23.6541 88.6677 22.6968 88.1207 21.8762 87.7104C21.4659 87.5736 21.1924 87.3001 21.0556 87.3001C21.0556 86.753 21.0556 86.7531 21.0556 86.7531C21.0556 86.7531 21.1924 86.753 21.3292 86.8898C21.4659 87.0266 21.8762 87.1633 22.1497 87.3001C22.8336 87.7104 23.9277 88.2574 25.1585 88.9413C25.8423 89.2148 26.5262 89.6251 27.21 90.0354C27.8938 90.4456 28.7144 90.7192 29.5349 91.1295C30.3555 91.403 31.1761 91.6765 32.1334 91.95C32.5437 92.0868 33.0908 92.0868 33.5011 92.2236C33.9114 92.2236 34.4584 92.3603 34.8687 92.3603C35.0055 92.3603 35.1422 92.3603 35.279 92.3603C35.4157 92.3603 35.5525 92.3603 35.6893 92.3603C35.9628 92.3603 36.0996 92.3603 36.3731 92.3603C36.6466 92.3603 36.7834 92.3603 37.0569 92.3603C37.3304 92.3603 37.4672 92.3603 37.7407 92.3603C38.6981 92.3603 39.6554 92.3603 40.476 92.4971C42.2539 92.6339 43.8951 93.0441 45.2627 93.4544C46.6303 93.8647 47.7244 94.275 48.545 94.6853C48.9553 94.8221 49.2288 94.9588 49.3656 95.0956C49.5023 95.0956 49.5023 95.2324 49.6391 95.2324H49.7759L49.092 95.9162Z" fill="#7C201E"/>
<g opacity="0.5">
<path d="M37.0569 92.3604C36.9201 92.2236 36.9201 92.0868 36.9201 92.0868C36.7834 91.8133 36.6466 91.5398 36.3731 91.2663C36.0996 90.856 35.9628 90.4457 35.5525 90.0354C35.4157 89.7619 35.279 89.6251 35.0054 89.3516C34.8687 89.0781 34.5952 88.9413 34.4584 88.6678C34.3216 88.531 34.3216 88.3942 34.1849 88.3942C34.0481 88.2575 34.0481 88.2575 33.9113 88.1207C33.7746 87.984 33.5011 87.7104 33.3643 87.5737C33.2275 87.4369 32.954 87.3001 32.8172 87.1634C32.6805 87.0266 32.6805 87.0266 32.5437 86.8899C32.4069 86.8899 32.407 86.7531 32.2702 86.7531C32.1334 86.6163 31.9967 86.4796 31.7231 86.4796C31.5864 86.3428 31.4496 86.3428 31.3128 86.206C31.4496 86.206 31.5864 86.3428 31.7231 86.3428C31.8599 86.4796 31.9967 86.4796 32.2702 86.6163C32.407 86.6163 32.4069 86.7531 32.5437 86.7531C32.6805 86.7531 32.6805 86.8899 32.8172 86.8899C32.954 87.0266 33.2275 87.1634 33.5011 87.3001C33.7746 87.4369 33.9113 87.5737 34.1849 87.8472C34.3216 87.984 34.4584 87.984 34.4584 88.1207C34.5952 88.2575 34.7319 88.2575 34.7319 88.3942C34.8687 88.531 35.1422 88.8045 35.279 88.9413C35.4157 89.2148 35.6893 89.3516 35.826 89.4883C36.0995 89.8986 36.5098 90.3089 36.6466 90.5825C36.9201 90.9927 37.0569 91.2663 37.1937 91.403C37.1937 91.5398 37.3304 91.5398 37.3304 91.6766V91.8133L37.0569 92.3604Z" fill="#600606"/>
</g>
<g opacity="0.5">
<path d="M33.2275 92.2236C33.0907 92.3603 32.954 92.3603 32.954 92.4971C32.8172 92.6339 32.6804 92.6339 32.5437 92.7706C32.4069 92.9074 32.2702 93.0442 31.9966 93.0442C31.8599 93.1809 31.5863 93.3177 31.3128 93.4544C31.0393 93.5912 30.7658 93.728 30.629 93.728H30.4922C30.4922 93.728 30.3555 93.728 30.2187 93.728C30.0819 93.728 29.9452 93.8647 29.8084 93.8647C29.5349 93.8647 29.2614 94.0015 28.9878 94.0015C28.7143 94.0015 28.4408 94.0015 28.1673 93.8647C28.0305 93.8647 28.0305 93.8647 27.8937 93.8647C27.757 93.8647 27.757 93.8647 27.6202 93.8647C27.4834 93.8647 27.3467 93.728 27.2099 93.728C27.0732 93.728 26.9364 93.5912 26.7996 93.5912C26.6629 93.5912 26.5261 93.4544 26.3893 93.4544C26.3893 93.4544 26.2526 93.4544 26.2526 93.3177L26.1158 93.1809C26.1158 93.1809 25.9791 93.1809 25.9791 93.0442C25.9791 93.0442 25.9791 93.0442 25.8423 93.0442C25.7055 92.9074 25.5688 92.7706 25.432 92.6339C25.2952 92.4971 25.1585 92.3603 25.1585 92.3603C25.2952 92.4971 25.432 92.4971 25.5688 92.6339C25.7055 92.7706 25.8423 92.9074 25.9791 93.0442C25.9791 93.0442 25.9791 93.0442 26.1158 93.0442C26.1158 93.0442 26.2526 93.0442 26.2526 93.1809C26.2526 93.1809 26.3893 93.1809 26.3893 93.3177C26.3893 93.3177 26.5261 93.3177 26.5261 93.4544C26.6629 93.4544 26.7996 93.5912 26.9364 93.5912C27.0732 93.5912 27.2099 93.728 27.3467 93.728C27.4834 93.728 27.6202 93.8647 27.757 93.8647H27.8937C27.8937 93.8647 28.0305 93.8647 28.1673 93.8647C28.4408 93.8647 28.7143 93.8647 28.9878 93.8647C29.2614 93.8647 29.5349 93.8647 29.8084 93.728C29.9452 93.728 30.0819 93.5912 30.2187 93.5912H30.3555C30.3555 93.5912 30.4922 93.5912 30.4922 93.4544C30.7658 93.3177 31.0393 93.1809 31.176 93.1809C31.4496 93.0442 31.5863 92.9074 31.7231 92.7706C31.8599 92.6339 31.9966 92.4971 32.1334 92.3603C32.2702 92.2236 32.4069 92.0868 32.4069 92.0868C32.5437 91.9501 32.5437 91.9501 32.6804 91.9501V91.8133L33.2275 92.2236Z" fill="#600606"/>
</g>
</svg>
